<?xml version="1.0" encoding="utf-8"?>
<!-- Generator: Adobe Illustrator 18.1.1, SVG Export Plug-In . SVG Version: 6.00 Build 0)  -->
<!DOCTYPE svg PUBLIC "-//W3C//DTD SVG 1.1//EN" "http://www.w3.org/Graphics/SVG/1.1/DTD/svg11.dtd">
<svg version="1.1" id="Layer_1" xmlns="http://www.w3.org/2000/svg" xmlns:xlink="http://www.w3.org/1999/xlink" x="0px" y="0px"
	fill="#375c85" width="32px" height="32px" viewBox="-100 -200 1000 1000" enable-background="new 0 0 32 32" xml:space="preserve">
<path id="White_2_" d="M461 290q162 162 118 206l-8 8q-30 30-41 48t-4 54 49 88q20 24 37 39t35 16 30 1 29-13 24-18 26-25 21-22q48-48-6-194t-204-294q-150-150-295-205t-193-7q-2 2-23 22t-25 25-18 24-13 31 2 30 15 35 38 37q42 34 70 47t54 2 35-18 39-37q44-44 208 120z"/>
</svg>
